<svg width="150" height="150" viewBox="0 0 150 150" fill="none" xmlns="http://www.w3.org/2000/svg">
<circle cx="75" cy="75" r="75" fill="white"/>
<ellipse cx="44.4268" cy="67.3567" rx="29.1401" ry="29.1401" fill="black"/>
<circle cx="107.484" cy="67.3567" r="29.1401" fill="black"/>
<rect x="19.1083" y="56.3694" width="10.5096" height="72.6115" fill="black"/>
<rect x="70.7006" y="64.9681" width="20.0637" height="7.64331" fill="black"/>
<path d="M32.2684 55.2901C29.521 58.5589 27.8549 62.5993 27.4999 66.8546C27.1448 71.1098 28.1182 75.3704 30.2859 79.0493C32.4536 82.7282 35.7089 85.6443 39.6033 87.3957C43.4976 89.1471 47.8393 89.6476 52.0299 88.8282L48.0693 68.5709L32.2684 55.2901Z" fill="#E62900"/>
<path d="M62.6647 53.9755C60.632 51.9429 58.1973 50.3572 55.5163 49.3201C52.8353 48.283 49.9673 47.8173 47.0959 47.9529C44.2245 48.0885 41.4131 48.8223 38.8418 50.1074C36.2705 51.3924 33.9959 53.2004 32.1638 55.4155L48.0693 68.5709L62.6647 53.9755Z" fill="#00E6E6"/>
<path d="M52.0503 88.8242C55.741 88.0988 59.1633 86.3787 61.9475 83.8497C64.7317 81.3208 66.772 78.0791 67.8478 74.4749C68.9237 70.8708 68.9943 67.0412 68.052 63.3998C67.1097 59.7584 65.1903 56.4438 62.5012 53.8139L48.0693 68.5709L52.0503 88.8242Z" fill="#3CE600"/>
<rect x="95.5414" y="72.6115" width="6.6879" height="13.3758" fill="#3CE600"/>
<rect x="102.229" y="67.8344" width="7.64331" height="19.1083" fill="#00E6E6"/>
<rect x="109.873" y="62.1019" width="7.64331" height="23.8853" fill="#E62900"/>
<path d="M106.529 88.4872C117.143 88.4872 125.748 79.8823 125.748 69.2675C125.748 58.6527 117.143 50.0478 106.529 50.0478C95.9139 50.0478 87.3089 58.6527 87.3089 69.2675C87.3089 79.8823 95.9139 88.4872 106.529 88.4872Z" stroke="white" stroke-width="5"/>
<rect x="15.2866" y="107.962" width="18.1529" height="40.1274" fill="black"/>
<path d="M39.172 106.051C46.5075 111.807 65.0797 122.648 80.6844 119.962C100.19 116.604 108.693 109.888 113.694 106.051" stroke="black" stroke-width="5" stroke-linecap="round"/>
</svg>
